<?xml version="1.0" encoding="UTF-8"?>
<svg id="Layer_2" data-name="Layer 2" xmlns="http://www.w3.org/2000/svg" viewBox="0 0 106.78 120.64">
  <defs>
    <style>
      .cls-2 {
        fill: #fff;
      }
    </style>
  </defs>
  <g id="Layer_1-2" data-name="Layer 1">
    <g>
      <path class="cls-2" d="M0,66.06v-7.96c.88-9.22,2.87-18.34,6.58-27.06,3.45-8.11,9.01-14.73,15.95-20.13C38.31-1.37,63.53-4.06,80.48,6.84c5.59,3.6,10.55,7.73,15.06,12.64,3.13,3.41,5.63,7.07,7.3,11.42,3.24,8.42,4.33,14.35,3.82,23.5-.66,11.87-8.77,23.62-17.16,32.04l9.43,12.82c.49.66.39,1.71-.03,2.38-11.91,10.25-24.84,17.19-40.63,18.76-14.8,1.47-28.37-3.91-39.64-13.3C5.91,96.51,1.32,81.95,0,66.06ZM49.23,47.97c-3.19-4.75-6.04-9.29-6.82-15.02-1.06-7.08,2.67-12.94,8.84-16.04,4.24-2.13,8.66-2.67,12.88-.01,3.59,2.26,6.24,5.75,7.34,9.96,1.95,8.78-1.64,16.01-7.74,22.3l19.78,27.66c8-9.22,10.6-21.55,9.81-33.46-.37-10.09-5.29-19.01-13.76-24.69-11.72-7.87-27.03-9.63-40.34-4.75-11.33,4.15-20.16,12.77-24.43,24.01-5.07,13.34-5.63,27.82-1.54,41.47,2.62,8.72,7.51,16.19,14.31,22.1,13.8,12.01,31.24,10.35,47.4,3.65,3.58-1.9,6.81-3.92,10.27-6.31l-3.7-4.83c-3.53,1.84-7.03,3.32-10.84,4.55-8.96,2.9-17.76,5.61-26.65,1.47-7.43-3.46-13.05-9.74-15.38-17.63-2.14-7.25-.38-14.76,4.43-20.47,2.07-2.46,4.25-4.61,6.77-6.6l9.35-7.36ZM57.46,39.88c2.22-3.69,3.66-8.74,1.79-11.77-.76-1.24-2.04-1.71-3.42-1.46-.86.15-1.98,1.14-2.28,2.31-.84,3.31,1.62,7.45,3.91,10.91ZM67.85,89.18c2.68-1.39,4.8-3.16,7.12-4.74l-20.29-28.39c-8.1,6.44-16.53,13.59-13.7,24.03,1.09,4.05,4,8.1,8.53,9.87,5.79,2.27,12.63,2.19,18.35-.77Z"/>
    </g>
  </g>
</svg>
