<svg width="333" height="290" viewBox="0 0 333 290" fill="none" xmlns="http://www.w3.org/2000/svg">
<path d="M128.007 50.192C149.478 38.9386 174.28 36.0046 197.806 42.149C215.411 46.7575 234.104 61.9635 245.979 75.5817C251.536 81.9506 255.316 89.0099 258.095 96.9322C265.706 118.697 266.501 138.943 256.041 159.88C250.276 171.409 242.509 181.247 233.172 190.636L249.793 213.23C250.742 214.525 250.674 216.043 249.707 217.252C230.134 234.028 212.2 244.229 186.569 249.166C170.587 252.255 154.604 250.771 139.381 244.92C125.297 239.5 112.68 231.267 102.134 220.531C87.0833 205.187 80.7147 186.425 77.418 165.506C75.6747 154.46 75.5013 143.776 77.1065 132.677C78.7117 121.579 81.5254 110.222 85.3916 99.2623C89.6549 87.2149 96.2482 76.8069 105.103 67.6764C111.938 60.6343 119.239 54.8004 128.007 50.192Z" fill="#FECA0C"/>
<path d="M139.691 65.415C154.776 58.5284 171.122 56.9577 187.398 60.0126C213.046 64.8281 235.345 81.4324 239.471 108.22C242.502 130.414 235.761 176.355 208.634 187.009L207.989 187.254L225.974 212.401C220.243 216.509 214.651 220.014 208.403 223.293C180.27 235.202 149.788 238.447 125.192 217.769C112.023 206.689 102.772 191.845 98.336 174.947C92.4331 152.475 93.5726 128.311 101.581 106.546C108.382 88.0432 121.914 73.5444 139.691 65.415Z" fill="black"/>
<path d="M121.588 110.825C122.236 106.89 125.643 104.035 129.631 104.016C133.557 103.997 136.949 106.733 137.587 110.606C138.6 116.756 139.885 126.3 139.929 135.354C139.974 144.408 138.782 153.965 137.829 160.124C137.228 164.004 133.864 166.773 129.938 166.792C125.949 166.811 122.515 163.991 121.828 160.062C120.533 152.653 118.677 141.079 118.649 135.458C118.622 129.838 120.365 118.246 121.588 110.825Z" fill="#FECA0C"/>
<path d="M158.289 96.6825C158.696 92.9854 161.815 90.202 165.535 90.1838C169.216 90.1658 172.337 92.8628 172.768 96.5191C173.767 104.993 175.343 120.627 175.415 135.357C175.487 150.086 174.063 165.735 173.148 174.218C172.753 177.879 169.658 180.606 165.976 180.624C162.257 180.642 159.11 177.889 158.667 174.196C157.445 164.008 155.243 144.444 155.199 135.455C155.155 126.467 157.167 106.882 158.289 96.6825Z" fill="#FECA0C"/>
<path d="M193.625 110.825C194.273 106.89 197.68 104.035 201.668 104.016C205.594 103.997 208.986 106.733 209.624 110.606C210.637 116.756 211.922 126.3 211.966 135.354C212.011 144.408 210.819 153.965 209.866 160.124C209.265 164.004 205.901 166.773 201.975 166.792C197.986 166.811 194.552 163.991 193.865 160.062C192.57 152.653 190.714 141.079 190.686 135.458C190.659 129.838 192.402 118.246 193.625 110.825Z" fill="#FECA0C"/>
</svg>
