<svg viewBox="69 30 204 228" xmlns="http://www.w3.org/2000/svg">
<!-- Ring outline: outer silhouette minus inner shape, via even-odd fill -->
<path fill-rule="evenodd" fill="white" d="M128.007 50.1915C149.478 38.9382 174.281 36.0041 197.806 42.1485C215.411 46.7569 234.104 61.963 245.979 75.5811C251.536 81.95 255.316 89.0095 258.095 96.9317C265.706 118.697 266.501 138.943 256.041 159.879C250.276 171.409 242.51 181.247 233.172 190.637L249.793 213.23C250.742 214.524 250.673 216.043 249.707 217.251C230.134 234.028 212.2 244.229 186.569 249.165C170.587 252.255 154.604 250.77 139.381 244.919C125.297 239.499 112.68 231.266 102.134 220.53C87.0833 205.186 80.7146 186.425 77.418 165.506C75.6747 154.46 75.5013 143.776 77.1064 132.678C78.7116 121.58 81.5254 110.222 85.3916 99.2618C89.6548 87.2144 96.2482 76.8063 105.103 67.6759C111.937 60.6339 119.239 54.7998 128.007 50.1915Z M139.691 65.415C154.776 58.5284 171.122 56.9577 187.398 60.0126C213.046 64.8281 235.345 81.4324 239.471 108.22C242.502 130.414 235.761 176.355 208.634 187.009L207.989 187.254L225.974 212.401C220.243 216.509 214.651 220.014 208.403 223.293C180.27 235.202 149.788 238.447 125.192 217.769C112.023 206.689 102.772 191.845 98.336 174.947C92.4331 152.475 93.5726 128.311 101.581 106.546C108.382 88.0432 121.914 73.5444 139.691 65.415Z"/>
<!-- Face bars -->
<path fill="white" d="M121.588 110.824C122.236 106.889 125.643 104.035 129.631 104.015C133.557 103.996 136.949 106.732 137.587 110.606C138.6 116.756 139.885 126.3 139.929 135.354C139.974 144.408 138.782 153.964 137.829 160.124C137.228 164.003 133.864 166.772 129.938 166.791C125.949 166.811 122.515 163.99 121.828 160.061C120.533 152.653 118.677 141.078 118.649 135.458C118.622 129.837 120.365 118.245 121.588 110.824Z"/>
<path fill="white" d="M158.289 96.682C158.696 92.9849 161.815 90.2015 165.535 90.1833C169.216 90.1654 172.337 92.8623 172.768 96.5186C173.767 104.993 175.343 120.627 175.415 135.356C175.487 150.086 174.063 165.734 173.148 174.218C172.753 177.878 169.658 180.605 165.976 180.623C162.257 180.642 159.11 177.889 158.667 174.196C157.445 164.008 155.243 144.443 155.199 135.455C155.155 126.466 157.167 106.882 158.289 96.682Z"/>
<path fill="white" d="M193.625 110.824C194.273 106.889 197.68 104.035 201.668 104.015C205.594 103.996 208.986 106.732 209.624 110.606C210.637 116.756 211.922 126.3 211.966 135.354C212.011 144.408 210.819 153.964 209.866 160.124C209.265 164.003 205.901 166.772 201.975 166.791C197.986 166.811 194.552 163.99 193.865 160.061C192.57 152.653 190.714 141.078 190.686 135.458C190.659 129.837 192.402 118.245 193.625 110.824Z"/>
</svg>
